<svg width="2471" height="252" xmlns="http://www.w3.org/2000/svg" xmlns:xlink="http://www.w3.org/1999/xlink" xml:space="preserve" overflow="hidden"><g transform="translate(-375 -302)"><g><path d="M380.5 354.8C380.5 344.693 388.693 336.5 398.8 336.5L667.2 336.5C677.307 336.5 685.5 344.693 685.5 354.8L685.5 501.2C685.5 511.307 677.307 519.5 667.2 519.5L398.8 519.5C388.693 519.5 380.5 511.307 380.5 501.2Z" stroke="#FFFFFF" stroke-width="6.875" stroke-linecap="butt" stroke-linejoin="miter" stroke-miterlimit="8" stroke-opacity="1" fill="#E97132" fill-rule="evenodd" fill-opacity="1"/><text fill="#FFFFFF" fill-opacity="1" font-family="Yu Gothic,Yu Gothic_MSFontService,sans-serif" font-style="normal" font-variant="normal" font-weight="400" font-stretch="normal" font-size="69" text-anchor="start" direction="ltr" writing-mode="lr-tb" unicode-bidi="normal" text-decoration="none" transform="matrix(1 0 0 1 447.542 447)">Write</text><path d="M715 405.2 747.5 405.2 747.5 390 780 428 747.5 466 747.5 450.8 715 450.8Z" fill="#E97132" fill-rule="evenodd" fill-opacity="1"/><path d="M807.5 354.8C807.5 344.693 815.693 336.5 825.8 336.5L1094.2 336.5C1104.31 336.5 1112.5 344.693 1112.5 354.8L1112.5 501.2C1112.5 511.307 1104.31 519.5 1094.2 519.5L825.8 519.5C815.693 519.5 807.5 511.307 807.5 501.2Z" stroke="#FFFFFF" stroke-width="6.875" stroke-linecap="butt" stroke-linejoin="miter" stroke-miterlimit="8" stroke-opacity="1" fill="#E0A61D" fill-rule="evenodd" fill-opacity="1"/><text fill="#FFFFFF" fill-opacity="1" font-family="Yu Gothic,Yu Gothic_MSFontService,sans-serif" font-style="normal" font-variant="normal" font-weight="400" font-stretch="normal" font-size="69" text-anchor="start" direction="ltr" writing-mode="lr-tb" unicode-bidi="normal" text-decoration="none" transform="matrix(1 0 0 1 878.26 447)">Build</text><path d="M1143 405.2 1175 405.2 1175 390 1207 428 1175 466 1175 450.8 1143 450.8Z" fill="#D8B11D" fill-rule="evenodd" fill-opacity="1"/><path d="M1234.5 354.8C1234.5 344.693 1242.69 336.5 1252.8 336.5L1521.2 336.5C1531.31 336.5 1539.5 344.693 1539.5 354.8L1539.5 501.2C1539.5 511.307 1531.31 519.5 1521.2 519.5L1252.8 519.5C1242.69 519.5 1234.5 511.307 1234.5 501.2Z" stroke="#FFFFFF" stroke-width="6.875" stroke-linecap="butt" stroke-linejoin="miter" stroke-miterlimit="8" stroke-opacity="1" fill="#B7C11E" fill-rule="evenodd" fill-opacity="1"/><text fill="#FFFFFF" fill-opacity="1" font-family="Yu Gothic,Yu Gothic_MSFontService,sans-serif" font-style="normal" font-variant="normal" font-weight="400" font-stretch="normal" font-size="69" text-anchor="start" direction="ltr" writing-mode="lr-tb" unicode-bidi="normal" text-decoration="none" transform="matrix(1 0 0 1 1274.44 447)">Submit</text><path d="M1570 405.2 1602 405.2 1602 390 1634 428 1602 466 1602 450.8 1570 450.8Z" fill="#8EB21E" fill-rule="evenodd" fill-opacity="1"/><path d="M1661.5 354.8C1661.5 344.693 1669.69 336.5 1679.8 336.5L1948.2 336.5C1958.31 336.5 1966.5 344.693 1966.5 354.8L1966.5 501.2C1966.5 511.307 1958.31 519.5 1948.2 519.5L1679.8 519.5C1669.69 519.5 1661.5 511.307 1661.5 501.2Z" stroke="#FFFFFF" stroke-width="6.875" stroke-linecap="butt" stroke-linejoin="miter" stroke-miterlimit="8" stroke-opacity="1" fill="#6BA31D" fill-rule="evenodd" fill-opacity="1"/><text fill="#FFFFFF" fill-opacity="1" font-family="Yu Gothic,Yu Gothic_MSFontService,sans-serif" font-style="normal" font-variant="normal" font-weight="400" font-stretch="normal" font-size="69" text-anchor="start" direction="ltr" writing-mode="lr-tb" unicode-bidi="normal" text-decoration="none" transform="matrix(1 0 0 1 1699.97 447)">Review</text><path d="M1997 405.2 2029.5 405.2 2029.5 390 2062 428 2029.5 466 2029.5 450.8 1997 450.8Z" fill="#408E1C" fill-rule="evenodd" fill-opacity="1"/><path d="M2088.5 354.8C2088.5 344.693 2096.69 336.5 2106.8 336.5L2376.2 336.5C2386.31 336.5 2394.5 344.693 2394.5 354.8L2394.5 501.2C2394.5 511.307 2386.31 519.5 2376.2 519.5L2106.8 519.5C2096.69 519.5 2088.5 511.307 2088.5 501.2Z" stroke="#FFFFFF" stroke-width="6.875" stroke-linecap="butt" stroke-linejoin="miter" stroke-miterlimit="8" stroke-opacity="1" fill="#34861C" fill-rule="evenodd" fill-opacity="1"/><text fill="#FFFFFF" fill-opacity="1" font-family="Yu Gothic,Yu Gothic_MSFontService,sans-serif" font-style="normal" font-variant="normal" font-weight="400" font-stretch="normal" font-size="69" text-anchor="start" direction="ltr" writing-mode="lr-tb" unicode-bidi="normal" text-decoration="none" transform="matrix(1 0 0 1 2136.33 447)">Revise</text><path d="M2424 405.2 2456.5 405.2 2456.5 390 2489 428 2456.5 466 2456.5 450.8 2424 450.8Z" fill="#196B24" fill-rule="evenodd" fill-opacity="1"/><path d="M2516.5 354.8C2516.5 344.693 2524.69 336.5 2534.8 336.5L2803.2 336.5C2813.31 336.5 2821.5 344.693 2821.5 354.8L2821.5 501.2C2821.5 511.307 2813.31 519.5 2803.2 519.5L2534.8 519.5C2524.69 519.5 2516.5 511.307 2516.5 501.2Z" stroke="#FFFFFF" stroke-width="6.875" stroke-linecap="butt" stroke-linejoin="miter" stroke-miterlimit="8" stroke-opacity="1" fill="#196B24" fill-rule="evenodd" fill-opacity="1"/><text fill="#FFFFFF" fill-opacity="1" font-family="Yu Gothic,Yu Gothic_MSFontService,sans-serif" font-style="normal" font-variant="normal" font-weight="400" font-stretch="normal" font-size="69" text-anchor="start" direction="ltr" writing-mode="lr-tb" unicode-bidi="normal" text-decoration="none" transform="matrix(1 0 0 1 2550.07 447)">Publish</text></g></g></svg>