<svg width="1196" height="807" xmlns="http://www.w3.org/2000/svg" xmlns:xlink="http://www.w3.org/1999/xlink" xml:space="preserve" overflow="hidden"><g transform="translate(-311 -1324)"><g><path d="M782.5 1458.5C782.5 1388.36 839.36 1331.5 909.5 1331.5 979.64 1331.5 1036.5 1388.36 1036.5 1458.5 1036.5 1528.64 979.64 1585.5 909.5 1585.5 839.36 1585.5 782.5 1528.64 782.5 1458.5Z" stroke="#FFFFFF" stroke-width="6.875" stroke-linecap="butt" stroke-linejoin="miter" stroke-miterlimit="8" stroke-opacity="1" fill="#A02B93" fill-rule="evenodd" fill-opacity="1"/><text fill="#FFFFFF" fill-opacity="1" font-family="Yu Gothic,Yu Gothic_MSFontService,sans-serif" font-style="normal" font-variant="normal" font-weight="400" font-stretch="normal" font-size="50" text-anchor="start" direction="ltr" writing-mode="lr-tb" unicode-bidi="normal" text-decoration="none" transform="matrix(1 0 0 1 846.637 1472)">Write</text><path d="M1036.73 1549.34 1060.6 1573.21 1072.74 1561.07 1066.26 1615.28 1012.05 1621.75 1024.19 1609.61 1000.32 1585.75Z" fill="#A02B93" fill-rule="evenodd" fill-opacity="1"/><path d="M1052.5 1728.5C1052.5 1658.36 1109.36 1601.5 1179.5 1601.5 1249.64 1601.5 1306.5 1658.36 1306.5 1728.5 1306.5 1798.64 1249.64 1855.5 1179.5 1855.5 1109.36 1855.5 1052.5 1798.64 1052.5 1728.5Z" stroke="#FFFFFF" stroke-width="6.875" stroke-linecap="butt" stroke-linejoin="miter" stroke-miterlimit="8" stroke-opacity="1" fill="#2C2EA2" fill-rule="evenodd" fill-opacity="1"/><text fill="#FFFFFF" fill-opacity="1" font-family="Yu Gothic,Yu Gothic_MSFontService,sans-serif" font-style="normal" font-variant="normal" font-weight="400" font-stretch="normal" font-size="50" text-anchor="start" direction="ltr" writing-mode="lr-tb" unicode-bidi="normal" text-decoration="none" transform="matrix(1 0 0 1 1119.12 1742)">Build</text><path d="M1087.17 1855.62 1063.3 1879.49 1075.44 1891.62 1021.23 1885.15 1014.76 1830.94 1026.89 1843.08 1050.76 1819.21Z" fill="#2C2EA2" fill-rule="evenodd" fill-opacity="1"/><path d="M782.5 1998C782.5 1927.58 839.36 1870.5 909.5 1870.5 979.64 1870.5 1036.5 1927.58 1036.5 1998 1036.5 2068.42 979.64 2125.5 909.5 2125.5 839.36 2125.5 782.5 2068.42 782.5 1998Z" stroke="#FFFFFF" stroke-width="6.875" stroke-linecap="butt" stroke-linejoin="miter" stroke-miterlimit="8" stroke-opacity="1" fill="#2DA594" fill-rule="evenodd" fill-opacity="1"/><text fill="#FFFFFF" fill-opacity="1" font-family="Yu Gothic,Yu Gothic_MSFontService,sans-serif" font-style="normal" font-variant="normal" font-weight="400" font-stretch="normal" font-size="50" text-anchor="start" direction="ltr" writing-mode="lr-tb" unicode-bidi="normal" text-decoration="none" transform="matrix(1 0 0 1 825.312 2012)">Review</text><path d="M780.888 1906.06 757.019 1882.19 744.883 1894.33 751.355 1840.12 805.565 1833.64 793.429 1845.78 817.298 1869.65Z" fill="#2DA594" fill-rule="evenodd" fill-opacity="1"/><path d="M512.5 1728.5C512.5 1658.36 569.36 1601.5 639.5 1601.5 709.64 1601.5 766.5 1658.36 766.5 1728.5 766.5 1798.64 709.64 1855.5 639.5 1855.5 569.36 1855.5 512.5 1798.64 512.5 1728.5Z" stroke="#FFFFFF" stroke-width="6.875" stroke-linecap="butt" stroke-linejoin="miter" stroke-miterlimit="8" stroke-opacity="1" fill="#4EA72E" fill-rule="evenodd" fill-opacity="1"/><text fill="#FFFFFF" fill-opacity="1" font-family="Yu Gothic,Yu Gothic_MSFontService,sans-serif" font-style="normal" font-variant="normal" font-weight="400" font-stretch="normal" font-size="50" text-anchor="start" direction="ltr" writing-mode="lr-tb" unicode-bidi="normal" text-decoration="none" transform="matrix(1 0 0 1 562.178 1742)">Revise</text><path d="M730.448 1599.78 754.317 1575.91 742.181 1563.77 796.391 1570.24 802.863 1624.45 790.727 1612.32 766.858 1636.19Z" fill="#4EA72E" fill-rule="evenodd" fill-opacity="1"/></g></g></svg>