<svg width="838" height="807" xmlns="http://www.w3.org/2000/svg" xmlns:xlink="http://www.w3.org/1999/xlink" xml:space="preserve" overflow="hidden"><g transform="translate(-669 -1324)"><g><path d="M961.5 1458.5C961.5 1388.36 1018.36 1331.5 1088.5 1331.5 1158.64 1331.5 1215.5 1388.36 1215.5 1458.5 1215.5 1528.64 1158.64 1585.5 1088.5 1585.5 1018.36 1585.5 961.5 1528.64 961.5 1458.5Z" stroke="#FFFFFF" stroke-width="6.875" stroke-linecap="butt" stroke-linejoin="miter" stroke-miterlimit="8" stroke-opacity="1" fill="#A02B93" fill-rule="evenodd" fill-opacity="1"/><text fill="#FFFFFF" fill-opacity="1" font-family="Yu Gothic,Yu Gothic_MSFontService,sans-serif" font-style="normal" font-variant="normal" font-weight="400" font-stretch="normal" font-size="50" text-anchor="start" direction="ltr" writing-mode="lr-tb" unicode-bidi="normal" text-decoration="none" transform="matrix(1 0 0 1 1026.04 1472)">Write</text><path d="M1216.13 1549.24 1240.04 1573.16 1252.17 1561.03 1245.76 1615.27 1191.52 1621.69 1203.65 1609.55 1179.73 1585.64Z" fill="#A02B93" fill-rule="evenodd" fill-opacity="1"/><path d="M1231.5 1728.5C1231.5 1658.36 1288.36 1601.5 1358.5 1601.5 1428.64 1601.5 1485.5 1658.36 1485.5 1728.5 1485.5 1798.64 1428.64 1855.5 1358.5 1855.5 1288.36 1855.5 1231.5 1798.64 1231.5 1728.5Z" stroke="#FFFFFF" stroke-width="6.875" stroke-linecap="butt" stroke-linejoin="miter" stroke-miterlimit="8" stroke-opacity="1" fill="#2C2EA2" fill-rule="evenodd" fill-opacity="1"/><text fill="#FFFFFF" fill-opacity="1" font-family="Yu Gothic,Yu Gothic_MSFontService,sans-serif" font-style="normal" font-variant="normal" font-weight="400" font-stretch="normal" font-size="50" text-anchor="start" direction="ltr" writing-mode="lr-tb" unicode-bidi="normal" text-decoration="none" transform="matrix(1 0 0 1 1298.63 1742)">Build</text><path d="M1266.67 1855.61 1242.75 1879.53 1254.88 1891.66 1200.64 1885.25 1194.22 1831 1206.36 1843.13 1230.27 1819.22Z" fill="#2C2EA2" fill-rule="evenodd" fill-opacity="1"/><path d="M961.5 1998.5C961.5 1928.36 1018.36 1871.5 1088.5 1871.5 1158.64 1871.5 1215.5 1928.36 1215.5 1998.5 1215.5 2068.64 1158.64 2125.5 1088.5 2125.5 1018.36 2125.5 961.5 2068.64 961.5 1998.5Z" stroke="#FFFFFF" stroke-width="6.875" stroke-linecap="butt" stroke-linejoin="miter" stroke-miterlimit="8" stroke-opacity="1" fill="#2DA594" fill-rule="evenodd" fill-opacity="1"/><text fill="#FFFFFF" fill-opacity="1" font-family="Yu Gothic,Yu Gothic_MSFontService,sans-serif" font-style="normal" font-variant="normal" font-weight="400" font-stretch="normal" font-size="50" text-anchor="start" direction="ltr" writing-mode="lr-tb" unicode-bidi="normal" text-decoration="none" transform="matrix(1 0 0 1 1004.72 2012)">Review</text><path d="M960.3 1906.15 936.384 1882.23 924.253 1894.37 930.665 1840.12 984.909 1833.71 972.778 1845.84 996.694 1869.76Z" fill="#2DA594" fill-rule="evenodd" fill-opacity="1"/><path d="M691.5 1728.5C691.5 1658.36 748.36 1601.5 818.5 1601.5 888.64 1601.5 945.5 1658.36 945.5 1728.5 945.5 1798.64 888.64 1855.5 818.5 1855.5 748.36 1855.5 691.5 1798.64 691.5 1728.5Z" stroke="#FFFFFF" stroke-width="6.875" stroke-linecap="butt" stroke-linejoin="miter" stroke-miterlimit="8" stroke-opacity="1" fill="#4EA72E" fill-rule="evenodd" fill-opacity="1"/><text fill="#FFFFFF" fill-opacity="1" font-family="Yu Gothic,Yu Gothic_MSFontService,sans-serif" font-style="normal" font-variant="normal" font-weight="400" font-stretch="normal" font-size="50" text-anchor="start" direction="ltr" writing-mode="lr-tb" unicode-bidi="normal" text-decoration="none" transform="matrix(1 0 0 1 741.482 1742)">Revise</text><path d="M909.761 1599.78 933.677 1575.87 921.545 1563.74 975.789 1570.15 982.202 1624.39 970.071 1612.26 946.155 1636.18Z" fill="#4EA72E" fill-rule="evenodd" fill-opacity="1"/></g></g></svg>